<?xml version="1.0"?>
<svg xmlns="http://www.w3.org/2000/svg" xmlns:xlink="http://www.w3.org/1999/xlink" fill="currentColor" viewBox="-4.5 -4.5 29 29" shape-rendering="crispEdges">
<title>QR Code Generator</title>
<defs>
<rect id="b" x="-0.5" y="-0.5" width="1" height="1" rx="0" />
<use id="f" xlink:href="#b" />
<path id="fc" d="" visibility="hidden" />
<use id="a" xlink:href="#b" />
<path id="ac" d="" visibility="hidden" />
</defs>
<use x="0" y="0" xlink:href="#f" />
<use x="1" y="0" xlink:href="#f" />
<use x="2" y="0" xlink:href="#f" />
<use x="3" y="0" xlink:href="#f" />
<use x="4" y="0" xlink:href="#f" />
<use x="5" y="0" xlink:href="#f" />
<use x="6" y="0" xlink:href="#f" />
<use x="8" y="0" xlink:href="#b" />
<use x="11" y="0" xlink:href="#b" />
<use x="14" y="0" xlink:href="#f" />
<use x="15" y="0" xlink:href="#f" />
<use x="16" y="0" xlink:href="#f" />
<use x="17" y="0" xlink:href="#f" />
<use x="18" y="0" xlink:href="#f" />
<use x="19" y="0" xlink:href="#f" />
<use x="20" y="0" xlink:href="#f" />
<use x="0" y="1" xlink:href="#f" />
<use x="6" y="1" xlink:href="#f" />
<use x="9" y="1" xlink:href="#b" />
<use x="10" y="1" xlink:href="#b" />
<use x="11" y="1" xlink:href="#b" />
<use x="12" y="1" xlink:href="#b" />
<use x="14" y="1" xlink:href="#f" />
<use x="20" y="1" xlink:href="#f" />
<use x="0" y="2" xlink:href="#f" />
<use x="2" y="2" xlink:href="#f" />
<use x="3" y="2" xlink:href="#f" />
<use x="4" y="2" xlink:href="#f" />
<use x="6" y="2" xlink:href="#f" />
<use x="10" y="2" xlink:href="#b" />
<use x="12" y="2" xlink:href="#b" />
<use x="14" y="2" xlink:href="#f" />
<use x="16" y="2" xlink:href="#f" />
<use x="17" y="2" xlink:href="#f" />
<use x="18" y="2" xlink:href="#f" />
<use x="20" y="2" xlink:href="#f" />
<use x="0" y="3" xlink:href="#f" />
<use x="2" y="3" xlink:href="#f" />
<use x="3" y="3" xlink:href="#f" />
<use x="4" y="3" xlink:href="#f" />
<use x="6" y="3" xlink:href="#f" />
<use x="9" y="3" xlink:href="#b" />
<use x="11" y="3" xlink:href="#b" />
<use x="12" y="3" xlink:href="#b" />
<use x="14" y="3" xlink:href="#f" />
<use x="16" y="3" xlink:href="#f" />
<use x="17" y="3" xlink:href="#f" />
<use x="18" y="3" xlink:href="#f" />
<use x="20" y="3" xlink:href="#f" />
<use x="0" y="4" xlink:href="#f" />
<use x="2" y="4" xlink:href="#f" />
<use x="3" y="4" xlink:href="#f" />
<use x="4" y="4" xlink:href="#f" />
<use x="6" y="4" xlink:href="#f" />
<use x="9" y="4" xlink:href="#b" />
<use x="14" y="4" xlink:href="#f" />
<use x="16" y="4" xlink:href="#f" />
<use x="17" y="4" xlink:href="#f" />
<use x="18" y="4" xlink:href="#f" />
<use x="20" y="4" xlink:href="#f" />
<use x="0" y="5" xlink:href="#f" />
<use x="6" y="5" xlink:href="#f" />
<use x="12" y="5" xlink:href="#b" />
<use x="14" y="5" xlink:href="#f" />
<use x="20" y="5" xlink:href="#f" />
<use x="0" y="6" xlink:href="#f" />
<use x="1" y="6" xlink:href="#f" />
<use x="2" y="6" xlink:href="#f" />
<use x="3" y="6" xlink:href="#f" />
<use x="4" y="6" xlink:href="#f" />
<use x="5" y="6" xlink:href="#f" />
<use x="6" y="6" xlink:href="#f" />
<use x="8" y="6" xlink:href="#b" />
<use x="10" y="6" xlink:href="#b" />
<use x="12" y="6" xlink:href="#b" />
<use x="14" y="6" xlink:href="#f" />
<use x="15" y="6" xlink:href="#f" />
<use x="16" y="6" xlink:href="#f" />
<use x="17" y="6" xlink:href="#f" />
<use x="18" y="6" xlink:href="#f" />
<use x="19" y="6" xlink:href="#f" />
<use x="20" y="6" xlink:href="#f" />
<use x="8" y="7" xlink:href="#b" />
<use x="11" y="7" xlink:href="#b" />
<use x="12" y="7" xlink:href="#b" />
<use x="0" y="8" xlink:href="#b" />
<use x="1" y="8" xlink:href="#b" />
<use x="3" y="8" xlink:href="#b" />
<use x="4" y="8" xlink:href="#b" />
<use x="6" y="8" xlink:href="#b" />
<use x="9" y="8" xlink:href="#b" />
<use x="10" y="8" xlink:href="#b" />
<use x="12" y="8" xlink:href="#b" />
<use x="14" y="8" xlink:href="#b" />
<use x="20" y="8" xlink:href="#b" />
<use x="0" y="9" xlink:href="#b" />
<use x="1" y="9" xlink:href="#b" />
<use x="2" y="9" xlink:href="#b" />
<use x="4" y="9" xlink:href="#b" />
<use x="7" y="9" xlink:href="#b" />
<use x="8" y="9" xlink:href="#b" />
<use x="10" y="9" xlink:href="#b" />
<use x="14" y="9" xlink:href="#b" />
<use x="18" y="9" xlink:href="#b" />
<use x="19" y="9" xlink:href="#b" />
<use x="20" y="9" xlink:href="#b" />
<use x="0" y="10" xlink:href="#b" />
<use x="2" y="10" xlink:href="#b" />
<use x="3" y="10" xlink:href="#b" />
<use x="4" y="10" xlink:href="#b" />
<use x="6" y="10" xlink:href="#b" />
<use x="7" y="10" xlink:href="#b" />
<use x="8" y="10" xlink:href="#b" />
<use x="12" y="10" xlink:href="#b" />
<use x="14" y="10" xlink:href="#b" />
<use x="15" y="10" xlink:href="#b" />
<use x="17" y="10" xlink:href="#b" />
<use x="19" y="10" xlink:href="#b" />
<use x="20" y="10" xlink:href="#b" />
<use x="0" y="11" xlink:href="#b" />
<use x="1" y="11" xlink:href="#b" />
<use x="2" y="11" xlink:href="#b" />
<use x="5" y="11" xlink:href="#b" />
<use x="10" y="11" xlink:href="#b" />
<use x="11" y="11" xlink:href="#b" />
<use x="13" y="11" xlink:href="#b" />
<use x="15" y="11" xlink:href="#b" />
<use x="16" y="11" xlink:href="#b" />
<use x="17" y="11" xlink:href="#b" />
<use x="18" y="11" xlink:href="#b" />
<use x="19" y="11" xlink:href="#b" />
<use x="1" y="12" xlink:href="#b" />
<use x="2" y="12" xlink:href="#b" />
<use x="3" y="12" xlink:href="#b" />
<use x="5" y="12" xlink:href="#b" />
<use x="6" y="12" xlink:href="#b" />
<use x="8" y="12" xlink:href="#b" />
<use x="9" y="12" xlink:href="#b" />
<use x="10" y="12" xlink:href="#b" />
<use x="11" y="12" xlink:href="#b" />
<use x="12" y="12" xlink:href="#b" />
<use x="13" y="12" xlink:href="#b" />
<use x="14" y="12" xlink:href="#b" />
<use x="16" y="12" xlink:href="#b" />
<use x="17" y="12" xlink:href="#b" />
<use x="19" y="12" xlink:href="#b" />
<use x="20" y="12" xlink:href="#b" />
<use x="8" y="13" xlink:href="#b" />
<use x="9" y="13" xlink:href="#b" />
<use x="11" y="13" xlink:href="#b" />
<use x="14" y="13" xlink:href="#b" />
<use x="16" y="13" xlink:href="#b" />
<use x="18" y="13" xlink:href="#b" />
<use x="20" y="13" xlink:href="#b" />
<use x="0" y="14" xlink:href="#f" />
<use x="1" y="14" xlink:href="#f" />
<use x="2" y="14" xlink:href="#f" />
<use x="3" y="14" xlink:href="#f" />
<use x="4" y="14" xlink:href="#f" />
<use x="5" y="14" xlink:href="#f" />
<use x="6" y="14" xlink:href="#f" />
<use x="9" y="14" xlink:href="#b" />
<use x="10" y="14" xlink:href="#b" />
<use x="11" y="14" xlink:href="#b" />
<use x="12" y="14" xlink:href="#b" />
<use x="14" y="14" xlink:href="#b" />
<use x="16" y="14" xlink:href="#b" />
<use x="18" y="14" xlink:href="#b" />
<use x="0" y="15" xlink:href="#f" />
<use x="6" y="15" xlink:href="#f" />
<use x="11" y="15" xlink:href="#b" />
<use x="12" y="15" xlink:href="#b" />
<use x="13" y="15" xlink:href="#b" />
<use x="14" y="15" xlink:href="#b" />
<use x="16" y="15" xlink:href="#b" />
<use x="17" y="15" xlink:href="#b" />
<use x="18" y="15" xlink:href="#b" />
<use x="19" y="15" xlink:href="#b" />
<use x="20" y="15" xlink:href="#b" />
<use x="0" y="16" xlink:href="#f" />
<use x="2" y="16" xlink:href="#f" />
<use x="3" y="16" xlink:href="#f" />
<use x="4" y="16" xlink:href="#f" />
<use x="6" y="16" xlink:href="#f" />
<use x="8" y="16" xlink:href="#b" />
<use x="9" y="16" xlink:href="#b" />
<use x="12" y="16" xlink:href="#b" />
<use x="17" y="16" xlink:href="#b" />
<use x="18" y="16" xlink:href="#b" />
<use x="20" y="16" xlink:href="#b" />
<use x="0" y="17" xlink:href="#f" />
<use x="2" y="17" xlink:href="#f" />
<use x="3" y="17" xlink:href="#f" />
<use x="4" y="17" xlink:href="#f" />
<use x="6" y="17" xlink:href="#f" />
<use x="8" y="17" xlink:href="#b" />
<use x="10" y="17" xlink:href="#b" />
<use x="11" y="17" xlink:href="#b" />
<use x="13" y="17" xlink:href="#b" />
<use x="17" y="17" xlink:href="#b" />
<use x="18" y="17" xlink:href="#b" />
<use x="19" y="17" xlink:href="#b" />
<use x="0" y="18" xlink:href="#f" />
<use x="2" y="18" xlink:href="#f" />
<use x="3" y="18" xlink:href="#f" />
<use x="4" y="18" xlink:href="#f" />
<use x="6" y="18" xlink:href="#f" />
<use x="12" y="18" xlink:href="#b" />
<use x="14" y="18" xlink:href="#b" />
<use x="16" y="18" xlink:href="#b" />
<use x="19" y="18" xlink:href="#b" />
<use x="20" y="18" xlink:href="#b" />
<use x="0" y="19" xlink:href="#f" />
<use x="6" y="19" xlink:href="#f" />
<use x="8" y="19" xlink:href="#b" />
<use x="9" y="19" xlink:href="#b" />
<use x="14" y="19" xlink:href="#b" />
<use x="15" y="19" xlink:href="#b" />
<use x="16" y="19" xlink:href="#b" />
<use x="17" y="19" xlink:href="#b" />
<use x="18" y="19" xlink:href="#b" />
<use x="19" y="19" xlink:href="#b" />
<use x="20" y="19" xlink:href="#b" />
<use x="0" y="20" xlink:href="#f" />
<use x="1" y="20" xlink:href="#f" />
<use x="2" y="20" xlink:href="#f" />
<use x="3" y="20" xlink:href="#f" />
<use x="4" y="20" xlink:href="#f" />
<use x="5" y="20" xlink:href="#f" />
<use x="6" y="20" xlink:href="#f" />
<use x="8" y="20" xlink:href="#b" />
<use x="11" y="20" xlink:href="#b" />
<use x="13" y="20" xlink:href="#b" />
<use x="14" y="20" xlink:href="#b" />
<use x="3" y="3" xlink:href="#fc" />
<use x="17" y="3" xlink:href="#fc" />
<use x="3" y="17" xlink:href="#fc" />
</svg>